<?xml version="1.0" standalone="no"?>
<!DOCTYPE svg PUBLIC "-//W3C//DTD SVG 20010904//EN"
 "http://www.w3.org/TR/2001/REC-SVG-20010904/DTD/svg10.dtd">
<svg version="1.0" xmlns="http://www.w3.org/2000/svg"
 width="2785.000000pt" height="2785.000000pt" viewBox="0 0 2785.000000 2785.000000"
 preserveAspectRatio="xMidYMid meet">
<metadata>
Created by potrace 1.14, written by Peter Selinger 2001-2017
</metadata>
<g transform="translate(0.000000,2785.000000) scale(0.100000,-0.100000)"
fill="#000000" stroke="none">
<path d="M8708 26865 c-448 -73 -795 -419 -873 -869 -13 -76 -15 -251 -15
-1222 l0 -1133 -897 -4 c-804 -3 -907 -5 -986 -20 -366 -73 -672 -233 -923
-482 -240 -239 -396 -527 -475 -880 -23 -100 -23 -101 -26 -1162 l-4 -1063
-1402 -2 -1402 -3 -80 -23 c-440 -128 -747 -489 -784 -923 -45 -531 269 -981
787 -1131 l77 -22 1403 -3 1402 -3 0 -1470 0 -1470 -1339 0 c-883 0 -1366 -4
-1418 -11 -362 -48 -660 -268 -818 -602 -131 -276 -131 -617 -1 -893 60 -125
115 -205 210 -300 172 -172 381 -273 621 -303 61 -7 511 -11 1418 -11 l1327 0
0 -1505 0 -1505 -1402 -2 -1403 -3 -77 -22 c-514 -146 -831 -598 -787 -1121
16 -183 69 -339 169 -489 61 -93 181 -219 265 -279 66 -47 193 -111 280 -141
159 -54 128 -53 1596 -53 l1358 0 3 -927 c3 -920 4 -929 26 -1028 85 -375 236
-650 499 -906 249 -242 543 -392 908 -461 105 -20 150 -21 992 -25 l883 -5 2
-1371 3 -1372 27 -100 c140 -513 626 -847 1143 -785 249 30 458 131 631 304
175 176 278 392 304 641 6 52 10 635 10 1388 l0 1297 1500 0 1500 0 0 -1282
c0 -781 4 -1324 10 -1389 13 -137 41 -242 94 -355 60 -125 115 -205 210 -300
414 -414 1083 -415 1496 -3 160 160 269 376 299 593 7 52 11 508 11 1407 l0
1329 1470 0 1470 0 0 -1339 c0 -1132 2 -1351 15 -1422 96 -549 601 -930 1153
-869 254 28 492 145 660 325 167 178 261 395 283 649 5 61 9 684 9 1384 l0
1272 728 0 c400 0 790 5 866 10 255 19 436 68 661 180 326 163 575 404 753
730 53 97 115 254 142 361 55 214 53 167 57 1151 l4 918 1447 2 1447 3 95 28
c379 111 651 390 751 772 20 78 23 113 23 255 -1 144 -4 177 -27 261 -82 311
-288 556 -580 694 -50 24 -128 54 -172 66 l-80 23 -1452 3 -1453 3 0 1505 0
1504 1433 4 c1558 3 1459 0 1628 58 400 137 682 513 706 941 23 425 -204 817
-582 1004 -60 30 -155 67 -210 82 l-100 27 -1437 3 -1438 3 0 1469 0 1470
1414 0 c1238 0 1424 2 1496 16 409 77 730 383 833 793 18 71 21 114 21 251 -1
146 -4 177 -27 264 -91 342 -349 619 -681 732 -163 56 -112 54 -1642 54
l-1414 0 0 993 c0 615 -4 1025 -10 1077 -35 291 -125 536 -287 780 -106 160
-303 357 -463 463 -205 135 -430 227 -670 273 -86 16 -174 19 -937 22 l-843 3
0 1077 c0 617 -4 1124 -10 1187 -12 140 -40 246 -94 361 -61 128 -116 205
-215 304 -178 177 -384 274 -640 302 -196 22 -387 -14 -576 -107 -281 -138
-466 -368 -558 -693 -22 -77 -22 -78 -25 -1254 l-3 -1178 -1469 0 -1470 0 0
1129 c0 756 -4 1155 -11 1207 -31 223 -141 439 -307 601 -271 266 -666 365
-1037 258 -415 -119 -709 -476 -755 -915 -6 -56 -10 -538 -10 -1187 l0 -1093
-1500 0 -1499 0 -4 1163 c-3 1146 -4 1163 -25 1249 -118 482 -510 805 -997
823 -77 3 -151 -1 -207 -10z m10922 -5460 c144 -17 248 -41 375 -85 637 -224
1080 -796 1145 -1475 14 -151 14 -11511 0 -11656 -29 -297 -123 -562 -285
-804 -255 -382 -632 -635 -1095 -737 l-105 -23 -5745 0 -5745 0 -104 23 c-295
65 -532 177 -753 355 -279 224 -493 555 -583 903 -59 228 -56 -206 -52 6169
l2 5840 27 121 c105 468 370 854 758 1106 239 155 463 232 795 271 17 2 2552
5 5635 6 4905 1 5621 -1 5730 -14z"/>
<path d="M9700 13815 l0 -4465 4270 0 4270 0 0 4465 0 4465 -4270 0 -4270 0 0
-4465z"/>
</g>
</svg>
